<svg xmlns="http://www.w3.org/2000/svg" viewBox="0 0 700 1050" width="700" height="1050" style="background:#f4f4f6; font-family: 'Cinzel', 'Playfair Display', Georgia, serif;">
  <defs>
    <!-- Shadows -->
    <filter id="ticketShadow" x="-10%" y="-10%" width="120%" height="125%">
      <feDropShadow dx="0" dy="16" stdDeviation="24" flood-color="#0b1329" flood-opacity="0.14" />
      <feDropShadow dx="0" dy="4" stdDeviation="8" flood-color="#0b1329" flood-opacity="0.08" />
    </filter>

    <linearGradient id="goldSheenTicket" x1="0%" y1="0%" x2="100%" y2="100%">
      <stop offset="0%" stop-color="#FBF2B7" />
      <stop offset="30%" stop-color="#E2B857" />
      <stop offset="60%" stop-color="#B8861E" />
      <stop offset="100%" stop-color="#9E6E17" />
    </linearGradient>

    <linearGradient id="ticketBg" x1="0%" y1="0%" x2="100%" y2="100%">
      <stop offset="0%" stop-color="#FFFFFF" />
      <stop offset="60%" stop-color="#FCFCFD" />
      <stop offset="100%" stop-color="#F4F6F9" />
    </linearGradient>

    <!-- Perforation Pattern -->
    <mask id="ticketCutoutMask">
      <rect x="0" y="0" width="640" height="1000" rx="36" fill="#FFFFFF" />
      <!-- Left Notch Cutout -->
      <circle cx="0" cy="460" r="18" fill="#000000" />
      <!-- Right Notch Cutout -->
      <circle cx="640" cy="460" r="18" fill="#000000" />
    </mask>

    <pattern id="batikHeader" width="40" height="40" patternUnits="userSpaceOnUse">
      <g opacity="0.25">
        <circle cx="20" cy="20" r="6" fill="none" stroke="url(#goldSheenTicket)" stroke-width="0.75" />
        <ellipse cx="20" cy="10" rx="5" ry="8" fill="none" stroke="url(#goldSheenTicket)" stroke-width="0.75" />
        <ellipse cx="20" cy="30" rx="5" ry="8" fill="none" stroke="url(#goldSheenTicket)" stroke-width="0.75" />
        <ellipse cx="10" cy="20" rx="8" ry="5" fill="none" stroke="url(#goldSheenTicket)" stroke-width="0.75" />
        <ellipse cx="30" cy="20" rx="8" ry="5" fill="none" stroke="url(#goldSheenTicket)" stroke-width="0.75" />
      </g>
    </pattern>
  </defs>

  <g transform="translate(30, 25)">
    <!-- TICKET SHAPE WITH SIDE NOTCHES -->
    <rect x="0" y="0" width="640" height="1000" rx="36" fill="url(#ticketBg)" mask="url(#ticketCutoutMask)" filter="url(#ticketShadow)" />
    <!-- Fine Border -->
    <rect x="0" y="0" width="640" height="1000" rx="36" fill="none" stroke="#E2E8F0" stroke-width="1.5" mask="url(#ticketCutoutMask)" />

    <!-- TOP HEADER BAND (NAVY + GOLD BATIK) -->
    <rect x="0" y="0" width="640" height="205" rx="36" fill="#0A162B" />
    <rect x="0" y="160" width="640" height="45" fill="#0A162B" /> <!-- square bottom corners of top header -->
    <rect x="0" y="0" width="640" height="205" fill="url(#batikHeader)" />

    <!-- GOLD ACCENT BOTTOM STRIP FOR HEADER -->
    <line x1="0" y1="205" x2="640" y2="205" stroke="url(#goldSheenTicket)" stroke-width="2.5" />

    <!-- TOP HEADER CONTENT (2 Cleanly Separated Rows - Zero Overlap) -->
    <!-- ROW 1: Authentic JejaK Logo + Protocol ID + #BATCH Pill -->
    <g transform="translate(42, 28)">
      <!-- Authentic JejaK Logo Emblem (From Official SVG) -->
      <g transform="translate(0, 0)">
        <!-- Outer Gold Ring -->
        <circle cx="23" cy="23" r="24" fill="#0B0F19" stroke="url(#goldSheenTicket)" stroke-width="1.8" />
        <!-- Inner Official Emblem Scaled to 46px -->
        <g transform="translate(-0.5, -0.5) scale(0.046)">
          <path d="M 478 88.038 C 418.185 93.625, 369.727 107.566, 315.313 134.843 C 295.327 144.862, 280.751 153.929, 259 169.876 C 241.366 182.803, 215.822 205.189, 200.500 221.142 C 182.713 239.662, 171.615 253.189, 156.314 275 C 125.109 319.482, 101.401 375.212, 91.022 428.478 C 84.228 463.350, 82.600 482.779, 83.296 520.730 C 83.856 551.275, 84.947 562.622, 90.022 590.672 C 92.541 604.600, 98.514 628.414, 103.020 642.500 C 112.197 671.189, 130.252 710.111, 146.379 735.971 C 187.679 802.199, 240.670 852.334, 310.212 890.974 C 332.436 903.323, 362.996 916.367, 386 923.322 C 412.069 931.205, 431.413 935.353, 460 939.191 C 474.139 941.089, 481.150 941.409, 509 941.425 C 543.856 941.445, 557.561 940.355, 585 935.383 C 634.070 926.492, 682.614 908.964, 723.039 885.540 C 737.238 877.313, 762.536 860.484, 773.800 851.774 C 801.877 830.062, 832.844 798.530, 854.598 769.500 C 871.193 747.354, 885.350 724.275, 897.534 699.500 C 914.262 665.488, 925.296 633.294, 932.440 597.658 C 939.543 562.229, 941.510 539.661, 940.681 503.123 C 939.926 469.842, 937.355 448.491, 930.373 417.500 C 927.090 402.929, 921.886 385.579, 915.996 369.562 C 909.501 351.899, 905.319 342.340, 895.976 323.797 C 874.131 280.445, 845.757 242.175, 809.656 207.370 C 787.571 186.078, 762.477 166.551, 736.500 150.443 C 722.307 141.642, 691.099 125.828, 674.500 119.025 C 638.978 104.467, 604.081 95.194, 565 89.929 C 552.848 88.292, 542.804 87.766, 518.500 87.495 C 501.450 87.305, 483.225 87.549, 478 88.038" fill="#0B0F19" />
          <path d="M 561.490 199.813 C 541.266 211.968, 492.441 241.590, 447.500 268.969 C 430.373 279.403, 415.426 289.232, 412.668 291.873 C 407.363 296.952, 403.424 303.790, 401.361 311.500 C 400.298 315.477, 400.023 332.875, 400.019 396.500 C 400.017 446.889, 400.399 478.906, 401.052 483 C 401.677 486.920, 403.839 493.116, 406.499 498.611 L 410.909 507.721 447.204 543.085 C 509.157 603.448, 544.861 639.127, 552.837 648.643 C 561.429 658.895, 566.107 666.201, 569.533 674.721 C 572.995 683.332, 575.134 695.442, 574.796 704.530 L 574.500 712.500 573.229 707.102 C 571.281 698.829, 564.986 686.407, 557.976 677 C 551.797 668.710, 540.861 657.318, 479.783 595.552 L 450.066 565.500 450.033 649.370 L 450 733.241 458.427 742.972 C 471.073 757.576, 487.706 774.658, 493.953 779.456 C 500.926 784.812, 506.844 787.880, 514.500 790.110 L 520.500 791.858 512.802 791.929 C 502.482 792.024, 491.237 788.488, 483.339 782.663 C 475.213 776.669, 466.423 766.850, 403.523 693.500 C 389.846 677.550, 373.759 659.004, 367.774 652.286 C 358.722 642.126, 355.852 639.567, 350.697 637.064 C 347.288 635.409, 341.800 633.639, 338.500 633.130 C 331.151 631.997, 226 632.946, 226 634.145 C 226 635.566, 235.165 654.918, 240.850 665.500 C 248.111 679.015, 262.851 701.239, 272.930 713.869 C 283.008 726.497, 300.526 744.189, 312 753.327 C 336.406 772.763, 362.456 786.471, 391.236 795.023 C 396.881 796.700, 408.025 799.254, 416 800.699 C 429.031 803.059, 432.932 803.324, 454.500 803.321 C 474.614 803.319, 480.362 802.976, 490 801.207 C 509.120 797.696, 530.749 790.739, 540.711 784.896 C 548.398 780.387, 559.623 769.197, 565.361 760.324 C 570.546 752.305, 575.094 741.665, 577.738 731.363 C 579.381 724.962, 579.500 714.633, 579.500 578 L 579.500 431.500 576.191 424.511 C 573.386 418.588, 570.493 415.116, 557.231 401.761 C 548.624 393.092, 541.248 386, 540.842 386 C 540.198 386, 503.265 409.511, 469.500 431.414 C 463.450 435.339, 449.745 444.164, 439.045 451.025 C 421.359 462.366, 410.926 470.717, 407.218 476.500 C 406.119 478.214, 405.993 477.563, 406.336 471.956 C 407.117 459.196, 415.219 448.307, 431.775 437.768 C 436.326 434.870, 448.476 427.043, 458.775 420.373 C 469.074 413.703, 487.625 401.748, 500 393.807 C 558.776 356.091, 572.811 347.099, 576.750 344.634 L 581 341.975 581 265.487 C 581 223.419, 580.658 189, 580.240 189 C 579.823 189, 571.385 193.866, 561.490 199.813 M 582.230 369.525 L 582.500 391.279 602 399.701 C 620.573 407.722, 727.717 453.631, 738.733 458.288 L 743.966 460.500 743.970 517.500 C 743.973 569.279, 743.803 575.324, 742.106 583.500 C 739.705 595.073, 735.162 606.750, 729.211 616.642 C 722.877 627.170, 718.357 632.982, 709.188 642.385 C 699.662 652.156, 688.537 661.518, 675.500 670.737 C 664.933 678.208, 631.215 699.891, 612.147 711.477 C 605.902 715.271, 600.605 718.865, 600.376 719.463 C 600.146 720.062, 600.080 729.868, 600.229 741.255 L 600.500 761.958 625 747.184 C 653.810 729.810, 667.444 721.179, 686.432 708.294 C 738.649 672.860, 765.831 638.274, 776.653 593.500 C 778.147 587.315, 778.387 577.593, 778.715 510 L 779.086 433.500 767.293 428.368 C 760.807 425.545, 734.125 413.908, 708 402.509 C 645.941 375.428, 587.128 349.870, 583.230 348.287 C 582.222 347.877, 582.016 352.254, 582.230 369.525 M 662.769 492.308 C 661.818 496.264, 659.237 503.154, 657.035 507.621 C 654.042 513.692, 651.440 517.226, 646.725 521.621 C 639.489 528.368, 633.433 531.852, 623.500 534.982 C 611.853 538.652, 611.990 538.466, 619.582 540.308 C 623.387 541.232, 630.166 543.789, 634.648 545.991 C 644.061 550.618, 650.635 557.085, 655.830 566.832 C 659.443 573.612, 664 586.185, 664 589.375 C 664 592.913, 665.610 589.782, 667.505 582.559 C 672.007 565.398, 682.083 552.402, 696.121 545.650 C 700.313 543.634, 706.763 541.239, 710.454 540.328 C 717.352 538.626, 717.468 537.821, 711 536.532 C 709.075 536.148, 703.340 533.837, 698.255 531.397 C 686.396 525.706, 679.047 518.668, 673.273 507.476 C 670.997 503.063, 668.353 496.538, 667.398 492.976 C 666.443 489.414, 665.400 486.189, 665.081 485.808 C 664.761 485.428, 663.721 488.353, 662.769 492.308" fill="#FFFFFF" fill-rule="evenodd" />
        </g>
      </g>

      <!-- Protocol Title Beside Logo -->
      <g transform="translate(60, 10)">
        <text x="0" y="16" font-size="13" font-weight="900" letter-spacing="2.2" fill="#FFFFFF" font-family="'Cinzel', Georgia, serif">JEJAK PROTOCOL</text>
        <text x="0" y="30" font-size="8.5" font-weight="700" letter-spacing="1.5" fill="#93C5FD" font-family="'Inter', sans-serif">BNB SMART CHAIN SBT &bull; AUTONOMOUS RELAYER</text>
      </g>

      <!-- #BATCH Pill Badge Top-Right (Positioned independently with zero overlap) -->
      <g transform="translate(556, 8)" text-anchor="end">
        <rect x="-124" y="0" width="124" height="34" rx="17" fill="url(#goldSheenTicket)" />
        <text x="-62" y="22" font-size="12.5" font-weight="900" letter-spacing="1.5" fill="#0A162B" text-anchor="middle" font-family="'JetBrains Mono', monospace">#BATCH-008</text>
      </g>
    </g>

    <!-- ROW 2: Main Headline & Subtitle (Completely Separate Row Below) -->
    <g transform="translate(42, 118)">
      <text x="0" y="26" font-size="26" font-weight="900" letter-spacing="1.2" fill="#FFFFFF" font-family="'Cinzel', Georgia, serif">JEJAK SETTLEMENT RECEIPT</text>
      <text x="0" y="48" font-size="9.5" font-weight="800" letter-spacing="2.4" fill="#FDE68A" font-family="'Inter', sans-serif">PROOF-OF-CLOSE BATCH ANCHOR &bull; CRYPTOGRAPHIC CLEARING</text>
      <line x1="0" y1="58" x2="160" y2="58" stroke="url(#goldSheenTicket)" stroke-width="2" />
    </g>

    <!-- ==================== MERCHANT SUMMARY HEADER ==================== -->
    <g transform="translate(42, 235)">
      <text x="0" y="18" font-size="11" font-weight="800" letter-spacing="2" fill="#64748B" font-family="'Inter', sans-serif">NAMA USAHA TERDAFTAR</text>
      <text x="0" y="50" font-size="28" font-weight="900" fill="#0F172A" font-family="'Cinzel', Georgia, serif">Warung Kopi Barokah</text>
      
      <g transform="translate(0, 70)">
        <text x="0" y="16" font-size="11.5" font-weight="700" fill="#475569" font-family="'Inter', sans-serif">Waktu Penguncian Kasir :</text>
        <text x="175" y="16" font-size="11.5" font-weight="800" fill="#1E3A8A" font-family="'JetBrains Mono', monospace">21 Sep 2026, 21:45 WIB</text>
      </g>
    </g>

    <!-- ==================== PERFORATION LINE WITH NOTCHES ==================== -->
    <g transform="translate(0, 360)">
      <!-- Perforated dashed line -->
      <line x1="24" y1="0" x2="616" y2="0" stroke="#CBD5E1" stroke-width="1.8" stroke-dasharray="8, 6" />
      <circle cx="320" cy="0" r="4" fill="#94A3B8" />
    </g>

    <!-- ==================== AUDIT METRICS BUBBLE CARD ==================== -->
    <g transform="translate(48, 390)">
      <text x="0" y="20" font-size="11.5" font-weight="900" letter-spacing="1.8" fill="#1E3A8A" font-family="'Inter', sans-serif">RINGKASAN OMZET BATCH TERKUNCI</text>

      <!-- Grid 2-Kolom -->
      <!-- Box 1: Total Omzet -->
      <g transform="translate(0, 36)">
        <rect x="0" y="0" width="260" height="74" rx="16" fill="#F8FAFC" stroke="#E2E8F0" stroke-width="1.2" />
        <text x="18" y="26" font-size="10" font-weight="800" letter-spacing="1.5" fill="#64748B" font-family="'Inter', sans-serif">TOTAL OMZET BATCH</text>
        <text x="18" y="54" font-size="20" font-weight="900" fill="#0F172A" font-family="'JetBrains Mono', monospace">Rp 1.450.000</text>
      </g>

      <!-- Box 2: Jumlah Transaksi -->
      <g transform="translate(284, 36)">
        <rect x="0" y="0" width="260" height="74" rx="16" fill="#F8FAFC" stroke="#E2E8F0" stroke-width="1.2" />
        <text x="18" y="26" font-size="10" font-weight="800" letter-spacing="1.5" fill="#64748B" font-family="'Inter', sans-serif">JUMLAH TRANSAKSI</text>
        <text x="18" y="54" font-size="20" font-weight="900" fill="#1E3A8A" font-family="'JetBrains Mono', monospace">18 Transaksi Kasir</text>
      </g>

      <!-- Box 3: Porsi Pembayaran -->
      <g transform="translate(0, 122)">
        <rect x="0" y="0" width="260" height="64" rx="16" fill="#F8FAFC" stroke="#E2E8F0" stroke-width="1.2" />
        <text x="18" y="24" font-size="10" font-weight="800" letter-spacing="1.2" fill="#64748B" font-family="'Inter', sans-serif">METODE TRANSAKSI</text>
        <text x="18" y="47" font-size="12" font-weight="800" fill="#0F172A" font-family="'Inter', sans-serif">QRIS (82%) • Tunai (18%)</text>
      </g>

      <!-- Box 4: Rasio Bukti Fisik Nota -->
      <g transform="translate(284, 122)">
        <rect x="0" y="0" width="260" height="64" rx="16" fill="#F8FAFC" stroke="#E2E8F0" stroke-width="1.2" />
        <text x="18" y="24" font-size="10" font-weight="800" letter-spacing="1.2" fill="#64748B" font-family="'Inter', sans-serif">BUKTI KAPASITAS NOTA</text>
        <text x="18" y="47" font-size="12" font-weight="800" fill="#059669" font-family="'Inter', sans-serif">100% Bukti Nota Terlampir</text>
      </g>
    </g>

    <!-- ==================== CRYPTOGRAPHIC PROOF BOX ==================== -->
    <g transform="translate(48, 620)">
      <rect x="0" y="0" width="544" height="180" rx="20" fill="#07101E" stroke="#1E293B" stroke-width="1.5" />
      
      <!-- Top Title inside box -->
      <g transform="translate(20, 24)">
        <circle cx="8" cy="8" r="6" fill="#10B981" />
        <text x="24" y="12" font-size="10.5" font-weight="900" letter-spacing="2" fill="#E2E8F0" font-family="'Inter', sans-serif">BUKTI KRIPTOGRAFIS ON-CHAIN (ANTI REKAYASA)</text>
      </g>

      <!-- Hash Line 1: Keccak256 -->
      <g transform="translate(20, 58)">
        <text x="0" y="12" font-size="9" font-weight="800" letter-spacing="1.5" fill="#94A3B8" font-family="'Inter', sans-serif">DATA INTEGRITY HASH (KECCAK-256):</text>
        <text x="0" y="30" font-size="10.5" font-weight="700" fill="#38BDF8" font-family="'JetBrains Mono', monospace">0x508619bba5499daf25db4e1228fd7da6d600182d...</text>
      </g>

      <!-- Hash Line 2: BSC Tx Hash -->
      <g transform="translate(20, 110)">
        <text x="0" y="12" font-size="9" font-weight="800" letter-spacing="1.5" fill="#94A3B8" font-family="'Inter', sans-serif">BSC TRANSACTION HASH:</text>
        <text x="0" y="30" font-size="10.5" font-weight="700" fill="#FBBF24" font-family="'JetBrains Mono', monospace">0x4e6e51120cd06702636beba7fa90e586852dd741...</text>
      </g>

      <g transform="translate(20, 156)">
        <text x="0" y="10" font-size="9" font-weight="700" fill="#64748B" font-family="'Inter', sans-serif">Status Gas Fee Kasir: </text>
        <text x="135" y="10" font-size="9" font-weight="800" fill="#34D399" font-family="'Inter', sans-serif">Rp 0 (Sponsored by Relayer) &bull; Block #4289104</text>
      </g>
    </g>

    <!-- ==================== BOTTOM VERIFICATION & QR CODE ==================== -->
    <g transform="translate(48, 830)">
      <!-- Simulated Vector QR Code -->
      <g transform="translate(0, 10)">
        <rect x="0" y="0" width="90" height="90" rx="12" fill="#FFFFFF" stroke="#CBD5E1" stroke-width="1.2" />
        <!-- QR Patterns -->
        <rect x="10" y="10" width="24" height="24" fill="#0F172A" />
        <rect x="14" y="14" width="16" height="16" fill="#FFFFFF" />
        <rect x="18" y="18" width="8" height="8" fill="#0F172A" />

        <rect x="56" y="10" width="24" height="24" fill="#0F172A" />
        <rect x="60" y="14" width="16" height="16" fill="#FFFFFF" />
        <rect x="64" y="18" width="8" height="8" fill="#0F172A" />

        <rect x="10" y="56" width="24" height="24" fill="#0F172A" />
        <rect x="14" y="60" width="16" height="16" fill="#FFFFFF" />
        <rect x="18" y="64" width="8" height="8" fill="#0F172A" />

        <!-- Pixel Dots -->
        <rect x="42" y="14" width="6" height="6" fill="#0F172A" />
        <rect x="42" y="28" width="6" height="6" fill="#0F172A" />
        <rect x="42" y="42" width="6" height="6" fill="#0F172A" />
        <rect x="56" y="42" width="6" height="6" fill="#0F172A" />
        <rect x="70" y="42" width="6" height="6" fill="#0F172A" />
        <rect x="42" y="56" width="6" height="6" fill="#0F172A" />
        <rect x="56" y="70" width="12" height="6" fill="#0F172A" />
        <rect x="74" y="60" width="6" height="16" fill="#0F172A" />
      </g>

      <!-- Text beside QR -->
      <g transform="translate(108, 20)">
        <rect x="0" y="0" width="195" height="26" rx="13" fill="#ECFDF5" stroke="#A7F3D0" stroke-width="1" />
        <circle cx="14" cy="13" r="4" fill="#10B981" />
        <text x="26" y="17" font-size="9.5" font-weight="900" letter-spacing="1.2" fill="#047857" font-family="'Inter', sans-serif">TERVERIFIKASI ON-CHAIN</text>

        <text x="0" y="48" font-size="10" font-weight="700" fill="#475569" font-family="'Inter', sans-serif">Pindai kode QR untuk membuka berkas</text>
        <text x="0" y="64" font-size="10" font-weight="700" fill="#475569" font-family="'Inter', sans-serif">audit transaksi di BscScan &amp; Terminal JejaK</text>
      </g>

      <!-- Stamp Circle Seal Bottom Right -->
      <g transform="translate(480, 55)" opacity="0.85">
        <circle cx="0" cy="0" r="42" fill="none" stroke="url(#goldSheenTicket)" stroke-width="2" stroke-dasharray="4, 2" />
        <circle cx="0" cy="0" r="36" fill="none" stroke="url(#goldSheenTicket)" stroke-width="1.2" />
        <text x="0" y="-12" font-size="7" font-weight="900" letter-spacing="1.5" fill="#8C5C0D" text-anchor="middle" font-family="'Inter', sans-serif">BNB CHAIN</text>
        <text x="0" y="2" font-size="9.5" font-weight="900" letter-spacing="1.2" fill="#0F172A" text-anchor="middle" font-family="'Cinzel', serif">LOCKED</text>
        <text x="0" y="16" font-size="7" font-weight="900" letter-spacing="1.5" fill="#8C5C0D" text-anchor="middle" font-family="'Inter', sans-serif">SETTLEMENT</text>
      </g>
    </g>

    <!-- FOOTER SIGNATURE -->
    <g transform="translate(48, 960)">
      <line x1="0" y1="0" x2="544" y2="0" stroke="#E2E8F0" stroke-width="1" />
      <text x="0" y="22" font-size="9" font-weight="800" letter-spacing="1.5" fill="#94A3B8" font-family="'Inter', sans-serif">JEJAK PROTOKOL REPUTASI KREDIT UMKM</text>
      <text x="544" y="22" font-size="9" font-weight="800" letter-spacing="1.5" fill="#94A3B8" text-anchor="end" font-family="'Inter', sans-serif">AUTONOMOUS SETTLEMENT RECEIPT</text>
    </g>
  </g>
</svg>